{
  "source": "C:\\Users\\Peter\\Desktop\\stuff\\MIUN\\quantitative_research\\video_compression\\videos\\BVI-HD\\BVI-HD_CDVL_videos\\ORIG\\BridgeRiver_1920x1080_30fps.mp4",
  "output": "C:\\Users\\Peter\\Desktop\\stuff\\MIUN\\quantitative_research\\video_compression\\compressed_videos\\BVI-HD\\av1\\1.5\\BridgeRiver_1920x1080_30fps_av1.mkv",
  "codec": "av1",
  "ok": "Input #0, mov,mp4,m4a,3gp,3g2,mj2, from 'C:\\Users\\Peter\\Desktop\\stuff\\MIUN\\quantitative_research\\video_compression\\videos\\BVI-HD\\BVI-HD_CDVL_videos\\ORIG\\BridgeRiver_1920x1080_30fps.mp4':\n  Metadata:\n    major_brand     : isom\n    minor_version   : 512\n    compatible_brands: isomiso2avc1mp41\n    encoder         : Lavf54.28.101\n  Duration: 00:00:05.00, start: 0.000000, bitrate: 274913 kb/s\n  Stream #0:0[0x1](und): Video: h264 (High 4:4:4 Predictive) (avc1 / 0x31637661), yuv420p(progressive), 1920x1080, 274910 kb/s, 30 fps, 30 tbr, 30 tbn (default)\n    Metadata:\n      handler_name    : VideoHandler\n      vendor_id       : [0][0][0][0]\n[out#0/matroska @ 000002045f008fc0] Codec AVOption b:a (set bitrate (in bits/s)) has not been used for any stream. The most likely reason is either wrong type (e.g. a video option with no video streams) or that it is a private option of some decoder which was not actually used for any stream.\nStream mapping:\n  Stream #0:0 -> #0:0 (h264 (native) -> av1 (libsvtav1))\nPress [q] to stop, [?] for help\nSvt[info]: -------------------------------------------\nSvt[info]: SVT [version]:\tSVT-AV1 Encoder Lib v3.1.0-19-g6ecfe8ec\nSvt[info]: SVT [build]  :\tGCC 15.2.0\t 64 bit\nSvt[info]: LIB Build date: Aug 17 2025 11:37:13\nSvt[info]: -------------------------------------------\nSvt[info]: Level of Parallelism: 5\nSvt[info]: Number of PPCS 93\nSvt[info]: [asm level on system : up to avx2]\nSvt[info]: [asm level selected : up to avx2]\nSvt[info]: -------------------------------------------\nSvt[info]: SVT [config]: main profile\ttier (auto)\tlevel (auto)\nSvt[info]: SVT [config]: width / height / fps numerator / fps denominator \t\t: 1920 / 1080 / 30 / 1\nSvt[info]: SVT [config]: bit-depth / color format \t\t\t\t\t: 8 / YUV420\nSvt[info]: SVT [config]: preset / tune / pred struct \t\t\t\t\t: 4 / PSNR / random access\nSvt[info]: SVT [config]: gop size / mini-gop size / key-frame type \t\t\t: 161 / 16 / key frame\nSvt[info]: SVT [config]: BRC mode / target bitrate (kbps)\t\t\t\t: VBR / 1500 \nSvt[info]: SVT [config]: AQ mode / Variance Boost \t\t\t\t\t: 2 / 0\nSvt[info]: SVT [config]: sharpness / luminance-based QP bias \t\t\t\t: 0 / 0\nSvt[info]: SVT [config]: QP scale compress strength \t\t\t\t\t: 0\nSvt[info]: -------------------------------------------\nOutput #0, matroska, to 'C:\\Users\\Peter\\Desktop\\stuff\\MIUN\\quantitative_research\\video_compression\\compressed_videos\\BVI-HD\\av1\\1.5\\BridgeRiver_1920x1080_30fps_av1.mkv':\n  Metadata:\n    major_brand     : isom\n    minor_version   : 512\n    compatible_brands: isomiso2avc1mp41\n    encoder         : Lavf62.3.100\n  Stream #0:0(und): Video: av1 (AV01 / 0x31305641), yuv420p(tv, progressive), 1920x1080, q=2-31, 1500 kb/s, 30 fps, 1k tbn (default)\n    Metadata:\n      encoder         : Lavc62.11.100 libsvtav1\n      handler_name    : VideoHandler\n      vendor_id       : [0][0][0][0]\n    Side data:\n      cpb: bitrate max/min/avg: 0/0/1500000 buffer size: 1500000 vbv_delay: N/A\nframe=    0 fps=0.0 q=0.0 size=       0KiB time=N/A bitrate=N/A speed=N/A elapsed=0:00:01.03    \nframe=    0 fps=0.0 q=0.0 size=       0KiB time=N/A bitrate=N/A speed=N/A elapsed=0:00:01.58    \nframe=    0 fps=0.0 q=0.0 size=       0KiB time=N/A bitrate=N/A speed=N/A elapsed=0:00:02.14    \nframe=    0 fps=0.0 q=0.0 size=       0KiB time=N/A bitrate=N/A speed=N/A elapsed=0:00:02.67    \nframe=    0 fps=0.0 q=0.0 size=       0KiB time=N/A bitrate=N/A speed=N/A elapsed=0:00:03.19    \nframe=    1 fps=0.3 q=33.0 size=       1KiB time=00:00:00.00 bitrate=N/A speed=   0x elapsed=0:00:03.70    \nframe=    1 fps=0.2 q=33.0 size=       1KiB time=00:00:00.00 bitrate=N/A speed=   0x elapsed=0:00:04.23    \nframe=    4 fps=0.8 q=60.0 size=       1KiB time=00:00:00.10 bitrate=  57.0kbits/s speed=0.0211x elapsed=0:00:04.74    \nframe=    8 fps=1.5 q=60.0 size=       1KiB time=00:00:00.23 bitrate=  24.4kbits/s speed=0.0443x elapsed=0:00:05.27    \nframe=   10 fps=1.7 q=60.0 size=       1KiB time=00:00:00.30 bitrate=  19.0kbits/s speed=0.0519x elapsed=0:00:05.78    \nframe=   15 fps=2.4 q=56.0 size=       1KiB time=00:00:00.46 bitrate=  12.2kbits/s speed=0.0739x elapsed=0:00:06.31    \nframe=   18 fps=2.6 q=55.0 size=       1KiB time=00:00:00.56 bitrate=  10.1kbits/s speed=0.0827x elapsed=0:00:06.84    \nframe=   21 fps=2.8 q=55.0 size=       1KiB time=00:00:00.66 bitrate=   8.6kbits/s speed=0.0905x elapsed=0:00:07.36    \nframe=   23 fps=2.9 q=56.0 size=       1KiB time=00:00:00.73 bitrate=   7.8kbits/s speed=0.0929x elapsed=0:00:07.89    \nframe=   26 fps=3.1 q=58.0 size=       1KiB time=00:00:00.83 bitrate=   6.8kbits/s speed=0.0988x elapsed=0:00:08.43    \nframe=   29 fps=3.2 q=54.0 size=       1KiB time=00:00:00.93 bitrate=   6.1kbits/s speed=0.104x elapsed=0:00:08.95    \nframe=   35 fps=3.7 q=56.0 size=       1KiB time=00:00:01.13 bitrate=   5.0kbits/s speed=0.12x elapsed=0:00:09.47    \nframe=   38 fps=3.8 q=57.0 size=       1KiB time=00:00:01.23 bitrate=   4.6kbits/s speed=0.123x elapsed=0:00:09.99    \nframe=   40 fps=3.8 q=58.0 size=       1KiB time=00:00:01.30 bitrate=   4.4kbits/s speed=0.124x elapsed=0:00:10.50    \nframe=   44 fps=4.0 q=59.0 size=       1KiB time=00:00:01.43 bitrate=   4.0kbits/s speed=0.13x elapsed=0:00:11.02    \nframe=   49 fps=4.2 q=47.0 size=       1KiB time=00:00:01.60 bitrate=   3.6kbits/s speed=0.139x elapsed=0:00:11.54    \nframe=   52 fps=4.3 q=60.0 size=       1KiB time=00:00:01.70 bitrate=   3.4kbits/s speed=0.141x elapsed=0:00:12.06    \nframe=   57 fps=4.5 q=53.0 size=       1KiB time=00:00:01.86 bitrate=   3.1kbits/s speed=0.148x elapsed=0:00:12.59    \nframe=   57 fps=4.3 q=53.0 size=       1KiB time=00:00:01.86 bitrate=   3.1kbits/s speed=0.142x elapsed=0:00:13.14    \nframe=   61 fps=4.5 q=55.0 size=       1KiB time=00:00:02.00 bitrate=   2.9kbits/s speed=0.146x elapsed=0:00:13.70    \nframe=   61 fps=4.3 q=55.0 size=       1KiB time=00:00:02.00 bitrate=   2.9kbits/s speed=0.14x elapsed=0:00:14.25    \nframe=   65 fps=4.4 q=46.0 size=       1KiB time=00:00:02.06 bitrate=   2.8kbits/s speed=0.14x elapsed=0:00:14.80    \nframe=   67 fps=4.3 q=58.0 size=       1KiB time=00:00:02.20 bitrate=   2.6kbits/s speed=0.142x elapsed=0:00:15.46    \nframe=   69 fps=4.3 q=55.0 size=       1KiB time=00:00:02.26 bitrate=   2.5kbits/s speed=0.142x elapsed=0:00:15.99    \nframe=   73 fps=4.4 q=55.0 size=       1KiB time=00:00:02.40 bitrate=   2.4kbits/s speed=0.145x elapsed=0:00:16.53    \nframe=   73 fps=4.3 q=55.0 size=       1KiB time=00:00:02.40 bitrate=   2.4kbits/s speed=0.14x elapsed=0:00:17.08    \nframe=   77 fps=4.4 q=55.0 size=       1KiB time=00:00:02.53 bitrate=   2.3kbits/s speed=0.144x elapsed=0:00:17.63    \nframe=   79 fps=4.4 q=58.0 size=       1KiB time=00:00:02.60 bitrate=   2.2kbits/s speed=0.143x elapsed=0:00:18.14    \nframe=   83 fps=4.4 q=58.0 size=       1KiB time=00:00:02.73 bitrate=   2.1kbits/s speed=0.147x elapsed=0:00:18.65    \nframe=   85 fps=4.4 q=55.0 size=       1KiB time=00:00:02.80 bitrate=   2.0kbits/s speed=0.146x elapsed=0:00:19.17    \nframe=   89 fps=4.5 q=55.0 size=       1KiB time=00:00:02.93 bitrate=   1.9kbits/s speed=0.149x elapsed=0:00:19.68    \nframe=   91 fps=4.5 q=58.0 size=       1KiB time=00:00:03.00 bitrate=   1.9kbits/s speed=0.149x elapsed=0:00:20.20    \nframe=   97 fps=4.7 q=50.0 size=       1KiB time=00:00:03.20 bitrate=   1.8kbits/s speed=0.154x elapsed=0:00:20.72    \nframe=  101 fps=4.8 q=58.0 size=       1KiB time=00:00:03.33 bitrate=   1.7kbits/s speed=0.157x elapsed=0:00:21.25    \nframe=  105 fps=4.8 q=55.0 size=       1KiB time=00:00:03.46 bitrate=   1.6kbits/s speed=0.159x elapsed=0:00:21.76    \nframe=  107 fps=4.8 q=58.0 size=       1KiB time=00:00:03.53 bitrate=   1.6kbits/s speed=0.159x elapsed=0:00:22.28    \nframe=  113 fps=5.0 q=50.0 size=       1KiB time=00:00:03.73 bitrate=   1.5kbits/s speed=0.164x elapsed=0:00:22.79    \nframe=  117 fps=5.0 q=58.0 size=       1KiB time=00:00:03.86 bitrate=   1.5kbits/s speed=0.166x elapsed=0:00:23.31    \nframe=  121 fps=5.1 q=55.0 size=       1KiB time=00:00:04.00 bitrate=   1.4kbits/s speed=0.168x elapsed=0:00:23.83    \nframe=  129 fps=5.3 q=50.0 size=       1KiB time=00:00:04.26 bitrate=   1.3kbits/s speed=0.175x elapsed=0:00:24.35    \nframe=  137 fps=5.5 q=61.0 size=       1KiB time=00:00:04.53 bitrate=   1.3kbits/s speed=0.182x elapsed=0:00:24.87    \n[out#0/matroska @ 000002045f008fc0] video:914KiB audio:0KiB subtitle:0KiB other streams:0KiB global headers:0KiB muxing overhead: 0.154995%\nframe=  150 fps=6.0 q=62.0 Lsize=     915KiB time=00:00:04.96 bitrate=1509.2kbits/s speed=0.198x elapsed=0:00:25.13    \n",
  "seconds": 25.58682155609131,
  "probe_out": {}
}